<?xml version="1.0" standalone="no"?>
<!DOCTYPE svg PUBLIC "-//W3C//DTD SVG 20010904//EN"
 "http://www.w3.org/TR/2001/REC-SVG-20010904/DTD/svg10.dtd">
<svg version="1.0" xmlns="http://www.w3.org/2000/svg"
 width="1024.000000pt" height="1024.000000pt" viewBox="0 0 1024.000000 1024.000000"
 preserveAspectRatio="xMidYMid meet">
<metadata>
Created by potrace 1.11, written by Peter Selinger 2001-2013
</metadata>
<g transform="translate(0.000000,1024.000000) scale(0.100000,-0.100000)"
fill="#000000" stroke="none">
<path d="M2885 9539 c-85 -11 -248 -50 -336 -80 -616 -211 -1091 -765 -1235
-1441 -26 -122 -26 -126 -34 -763 -9 -688 -13 -808 -35 -943 -65 -400 -259
-535 -815 -567 l-115 -7 -158 -156 c-86 -86 -157 -164 -157 -172 0 -8 73 -88
163 -178 l162 -162 92 0 c195 0 427 -46 555 -111 72 -36 147 -104 182 -164 36
-60 73 -177 91 -286 22 -127 34 -585 35 -1286 0 -612 4 -669 64 -873 146 -501
555 -883 1115 -1041 257 -72 484 -91 1011 -87 l365 3 0 320 0 320 -460 6
c-361 5 -480 10 -555 23 -499 87 -793 334 -876 736 -15 75 -18 183 -24 955 -8
888 -9 922 -51 1127 -51 255 -170 482 -337 640 l-61 58 60 57 c160 152 266
345 325 588 53 222 56 262 64 1005 6 586 10 709 24 785 96 514 433 896 906
1026 81 22 104 23 535 28 l450 6 0 320 0 320 -440 1 c-242 1 -471 -2 -510 -7z"/>
<path d="M6405 9537 c-3 -7 -4 -152 -3 -322 l3 -310 605 -6 c669 -6 649 -4
795 -74 267 -128 439 -449 496 -925 6 -52 15 -349 19 -660 7 -453 11 -582 24
-650 88 -459 279 -818 585 -1100 l89 -82 -67 -58 c-336 -289 -561 -734 -621
-1230 -6 -48 -10 -331 -10 -660 -1 -316 -5 -647 -10 -735 -26 -471 -157 -701
-455 -799 -145 -47 -169 -49 -825 -55 l-625 -6 0 -320 0 -320 620 0 c671 0
726 3 930 55 514 129 852 493 960 1034 41 206 45 288 45 913 1 621 7 803 35
938 82 402 322 724 633 850 73 30 186 55 245 55 41 0 46 4 205 163 89 89 162
169 162 177 0 8 -71 86 -157 172 l-158 156 -65 7 c-143 15 -261 58 -385 140
-230 153 -405 429 -475 750 -30 142 -40 321 -40 791 0 434 -7 549 -46 760
-115 630 -445 1081 -932 1273 -79 31 -195 60 -307 76 -137 20 -1263 22 -1270
2z"/>
</g>
</svg>
